<svg xmlns="http://www.w3.org/2000/svg" xmlns:xlink="http://www.w3.org/1999/xlink"><defs>
<filter id="filter0_b_97_1373" x="-18.4963" y="-19.118" width="192.423" height="194.793" filterUnits="userSpaceOnUse" color-interpolation-filters="sRGB">
<feFlood flood-opacity="0" result="BackgroundImageFix"/>
<feGaussianBlur in="BackgroundImageFix" stdDeviation="9.70325"/>
<feComposite in2="SourceAlpha" operator="in" result="effect1_backgroundBlur_97_1373"/>
<feBlend mode="normal" in="SourceGraphic" in2="effect1_backgroundBlur_97_1373" result="shape"/>
</filter>
<linearGradient id="paint0_linear_97_1373" x1="77.7151" y1="0.288526" x2="77.7151" y2="156.268" gradientUnits="userSpaceOnUse">
<stop offset="0.0190619" stop-color="#292929" stop-opacity="0.8"/>
<stop offset="1" stop-color="#292929"/>
</linearGradient>
<linearGradient id="paint1_linear_97_1373" x1="78.0332" y1="39.971" x2="-44.4668" y2="62.471" gradientUnits="userSpaceOnUse">
<stop stop-color="#ED1D26" stop-opacity="0"/>
<stop offset="1" stop-color="#ED1D26"/>
</linearGradient>
</defs><symbol id="arrow-right" viewBox="0 0 24 24"><g fill="none">
<path d="M19 12H5" stroke="currentColor" stroke-width="2" stroke-linecap="round" stroke-linejoin="round"/>
<path d="M12 5L5 12L12 19" stroke="currentColor" stroke-width="2" stroke-linecap="round" stroke-linejoin="round"/>
</g></symbol><symbol id="badge" viewBox="0 0 155 157"><g fill="none">
<g filter="url(#filter0_b_97_1373)">
<path d="M77.7151 0.288526L89.9036 9.15386L104.389 4.99188L112.81 17.4913L127.846 18.5347L131.484 33.1605L145.256 39.2834L143.673 54.2716L154.52 64.7355L147.906 78.2783L154.52 91.8211L143.673 102.285L145.256 117.273L131.484 123.396L127.846 138.022L112.81 139.065L104.389 151.565L89.9036 147.403L77.7151 156.268L65.5266 147.403L51.041 151.565L42.6197 139.065L27.5842 138.022L23.9458 123.396L10.174 117.273L11.7573 102.285L0.910155 91.8211L7.52429 78.2783L0.910155 64.7355L11.7573 54.2716L10.174 39.2834L23.9458 33.1605L27.5842 18.5347L42.6197 17.4913L51.041 4.99188L65.5266 9.15386L77.7151 0.288526Z" fill="url(#paint0_linear_97_1373)" fill-opacity="0.9"/>
<path d="M77.7151 0.288526L89.9036 9.15386L104.389 4.99188L112.81 17.4913L127.846 18.5347L131.484 33.1605L145.256 39.2834L143.673 54.2716L154.52 64.7355L147.906 78.2783L154.52 91.8211L143.673 102.285L145.256 117.273L131.484 123.396L127.846 138.022L112.81 139.065L104.389 151.565L89.9036 147.403L77.7151 156.268L65.5266 147.403L51.041 151.565L42.6197 139.065L27.5842 138.022L23.9458 123.396L10.174 117.273L11.7573 102.285L0.910155 91.8211L7.52429 78.2783L0.910155 64.7355L11.7573 54.2716L10.174 39.2834L23.9458 33.1605L27.5842 18.5347L42.6197 17.4913L51.041 4.99188L65.5266 9.15386L77.7151 0.288526Z" fill="url(#paint1_linear_97_1373)" fill-opacity="0.5"/>
</g>

</g></symbol><symbol id="check-square" viewBox="0 0 24 24"><g fill="none">
<path d="M9 11L12 14L22 4" stroke="currentColor" stroke-width="2" stroke-linecap="round" stroke-linejoin="round"/>
<path d="M21 12V19C21 19.5304 20.7893 20.0391 20.4142 20.4142C20.0391 20.7893 19.5304 21 19 21H5C4.46957 21 3.96086 20.7893 3.58579 20.4142C3.21071 20.0391 3 19.5304 3 19V5C3 4.46957 3.21071 3.96086 3.58579 3.58579C3.96086 3.21071 4.46957 3 5 3H16" stroke="currentColor" stroke-width="2" stroke-linecap="round" stroke-linejoin="round"/>
</g></symbol><symbol id="check" viewBox="0 0 13 9"><g fill="none" color="#da0a13">
<path d="M1 4L5 8L12 1" stroke="currentColor" stroke-width="2" stroke-linecap="round" stroke-linejoin="round"/>
</g></symbol><symbol id="close" viewBox="0 0 25 25"><g fill="none">
<path d="M18.7485 6.52725L6.74854 18.5273" stroke="currentColor" stroke-width="2" stroke-linecap="round" stroke-linejoin="round"/>
<path d="M6.74854 6.52725L18.7485 18.5273" stroke="currentColor" stroke-width="2" stroke-linecap="round" stroke-linejoin="round"/>
</g></symbol><symbol id="phone" viewBox="0 0 24 24"><g fill="none">
<path d="M22 16.92V19.92C22.0011 20.1985 21.9441 20.4742 21.8325 20.7294C21.7209 20.9845 21.5573 21.2136 21.3521 21.4019C21.1468 21.5901 20.9046 21.7335 20.6407 21.8227C20.3769 21.9119 20.0974 21.9451 19.82 21.92C16.7428 21.5856 13.787 20.5342 11.19 18.85C8.77382 17.3147 6.72533 15.2662 5.18999 12.85C3.49997 10.2412 2.44824 7.271 2.11999 4.18001C2.095 3.90347 2.12787 3.62477 2.21649 3.36163C2.30512 3.09849 2.44756 2.85669 2.63476 2.65163C2.82196 2.44656 3.0498 2.28271 3.30379 2.17053C3.55777 2.05834 3.83233 2.00027 4.10999 2.00001H7.10999C7.5953 1.99523 8.06579 2.16708 8.43376 2.48354C8.80173 2.79999 9.04207 3.23945 9.10999 3.72001C9.23662 4.68007 9.47144 5.62273 9.80999 6.53001C9.94454 6.88793 9.97366 7.27692 9.8939 7.65089C9.81415 8.02485 9.62886 8.36812 9.35999 8.64001L8.08999 9.91001C9.51355 12.4136 11.5864 14.4865 14.09 15.91L15.36 14.64C15.6319 14.3711 15.9751 14.1859 16.3491 14.1061C16.7231 14.0263 17.1121 14.0555 17.47 14.19C18.3773 14.5286 19.3199 14.7634 20.28 14.89C20.7658 14.9585 21.2094 15.2032 21.5265 15.5775C21.8437 15.9518 22.0122 16.4296 22 16.92Z" stroke="currentColor" stroke-width="2" stroke-linecap="round" stroke-linejoin="round"/>
</g></symbol><symbol id="quotes" viewBox="0 0 101 76">
<path d="M0.873535 75.9588V54.2259C0.873535 47.9759 2.04541 41.4773 4.38916 34.7301C6.80393 27.9119 10.071 21.4844 14.1903 15.4474C18.3806 9.3395 23.0681 4.19035 28.2528 0L46.1505 11.6122C41.9602 17.9332 38.4446 24.5384 35.6036 31.4276C32.8338 38.2457 31.4843 45.7741 31.5554 54.0128V75.9588H0.873535ZM54.8863 75.9588V54.2259C54.8863 47.9759 56.0582 41.4773 58.4019 34.7301C60.8167 27.9119 64.0838 21.4844 68.2031 15.4474C72.3934 9.3395 77.0809 4.19035 82.2656 0L100.163 11.6122C95.973 17.9332 92.4573 24.5384 89.6164 31.4276C86.8465 38.2457 85.4971 45.7741 85.5681 54.0128V75.9588H54.8863Z"/>
<path d="M0.873535 75.9588V54.2259C0.873535 47.9759 2.04541 41.4773 4.38916 34.7301C6.80393 27.9119 10.071 21.4844 14.1903 15.4474C18.3806 9.3395 23.0681 4.19035 28.2528 0L46.1505 11.6122C41.9602 17.9332 38.4446 24.5384 35.6036 31.4276C32.8338 38.2457 31.4843 45.7741 31.5554 54.0128V75.9588H0.873535ZM54.8863 75.9588V54.2259C54.8863 47.9759 56.0582 41.4773 58.4019 34.7301C60.8167 27.9119 64.0838 21.4844 68.2031 15.4474C72.3934 9.3395 77.0809 4.19035 82.2656 0L100.163 11.6122C95.973 17.9332 92.4573 24.5384 89.6164 31.4276C86.8465 38.2457 85.4971 45.7741 85.5681 54.0128V75.9588H54.8863Z"/>
</symbol><symbol id="star" viewBox="0 0 18 17">
<path d="M8.04894 0.927049C8.3483 0.00573802 9.6517 0.00574017 9.95106 0.927051L11.2451 4.90983C11.379 5.32185 11.763 5.60081 12.1962 5.60081H16.3839C17.3527 5.60081 17.7554 6.84043 16.9717 7.40983L13.5838 9.87132C13.2333 10.126 13.0866 10.5773 13.2205 10.9894L14.5146 14.9721C14.8139 15.8934 13.7595 16.6596 12.9757 16.0902L9.58778 13.6287C9.2373 13.374 8.7627 13.374 8.41221 13.6287L5.02426 16.0902C4.24054 16.6596 3.18607 15.8934 3.48542 14.9721L4.7795 10.9894C4.91338 10.5773 4.76672 10.126 4.41623 9.87132L1.02827 7.40983C0.244561 6.84043 0.647338 5.60081 1.61606 5.60081H5.8038C6.23703 5.60081 6.62099 5.32185 6.75486 4.90983L8.04894 0.927049Z"/>
</symbol></svg>