<svg width="144" height="146" viewBox="0 0 144 146" fill="none" xmlns="http://www.w3.org/2000/svg">
<g filter="url(#filter0_b_97_1373)">
<path d="M72.3087 0.288526L83.6393 8.52982L97.1052 4.66081L104.934 16.2804L118.911 17.2503L122.293 30.8466L135.096 36.5385L133.624 50.4717L143.707 60.199L137.559 72.7885L143.707 85.378L133.624 95.1053L135.096 109.039L122.293 114.73L118.911 128.327L104.934 129.297L97.1052 140.916L83.6393 137.047L72.3087 145.289L60.9782 137.047L47.5123 140.916L39.6837 129.297L25.7066 128.327L22.3243 114.73L9.52187 109.039L10.9938 95.1053L0.910155 85.378L7.05872 72.7885L0.910155 60.199L10.9938 50.4717L9.52187 36.5385L22.3243 30.8466L25.7066 17.2503L39.6837 16.2804L47.5123 4.66081L60.9782 8.52982L72.3087 0.288526Z" fill="url(#paint0_linear_97_1373)" fill-opacity="0.9"/>
<path d="M72.3087 0.288526L83.6393 8.52982L97.1052 4.66081L104.934 16.2804L118.911 17.2503L122.293 30.8466L135.096 36.5385L133.624 50.4717L143.707 60.199L137.559 72.7885L143.707 85.378L133.624 95.1053L135.096 109.039L122.293 114.73L118.911 128.327L104.934 129.297L97.1052 140.916L83.6393 137.047L72.3087 145.289L60.9782 137.047L47.5123 140.916L39.6837 129.297L25.7066 128.327L22.3243 114.73L9.52187 109.039L10.9938 95.1053L0.910155 85.378L7.05872 72.7885L0.910155 60.199L10.9938 50.4717L9.52187 36.5385L22.3243 30.8466L25.7066 17.2503L39.6837 16.2804L47.5123 4.66081L60.9782 8.52982L72.3087 0.288526Z" fill="url(#paint1_linear_97_1373)" fill-opacity="0.5"/>
</g>
<defs>
<filter id="filter0_b_97_1373" x="-18.4963" y="-19.118" width="181.61" height="183.813" filterUnits="userSpaceOnUse" color-interpolation-filters="sRGB">
<feFlood flood-opacity="0" result="BackgroundImageFix"/>
<feGaussianBlur in="BackgroundImageFix" stdDeviation="9.70325"/>
<feComposite in2="SourceAlpha" operator="in" result="effect1_backgroundBlur_97_1373"/>
<feBlend mode="normal" in="SourceGraphic" in2="effect1_backgroundBlur_97_1373" result="shape"/>
</filter>
<linearGradient id="paint0_linear_97_1373" x1="72.3087" y1="0.288526" x2="72.3087" y2="145.289" gradientUnits="userSpaceOnUse">
<stop offset="0.0190619" stop-color="#292929" stop-opacity="0.8"/>
<stop offset="1" stop-color="#292929"/>
</linearGradient>
<linearGradient id="paint1_linear_97_1373" x1="72.6045" y1="37.1777" x2="-41.2727" y2="58.0939" gradientUnits="userSpaceOnUse">
<stop stop-color="#ED1D26" stop-opacity="0"/>
<stop offset="1" stop-color="#ED1D26"/>
</linearGradient>
</defs>
</svg>
