<svg width="101" height="76" viewBox="0 0 101 76" fill="none" xmlns="http://www.w3.org/2000/svg">
<path d="M0.873535 75.9588V54.2259C0.873535 47.9759 2.04541 41.4773 4.38916 34.7301C6.80393 27.9119 10.071 21.4844 14.1903 15.4474C18.3806 9.3395 23.0681 4.19035 28.2528 0L46.1505 11.6122C41.9602 17.9332 38.4446 24.5384 35.6036 31.4276C32.8338 38.2457 31.4843 45.7741 31.5554 54.0128V75.9588H0.873535ZM54.8863 75.9588V54.2259C54.8863 47.9759 56.0582 41.4773 58.4019 34.7301C60.8167 27.9119 64.0838 21.4844 68.2031 15.4474C72.3934 9.3395 77.0809 4.19035 82.2656 0L100.163 11.6122C95.973 17.9332 92.4573 24.5384 89.6164 31.4276C86.8465 38.2457 85.4971 45.7741 85.5681 54.0128V75.9588H54.8863Z" fill="white"/>
<path d="M0.873535 75.9588V54.2259C0.873535 47.9759 2.04541 41.4773 4.38916 34.7301C6.80393 27.9119 10.071 21.4844 14.1903 15.4474C18.3806 9.3395 23.0681 4.19035 28.2528 0L46.1505 11.6122C41.9602 17.9332 38.4446 24.5384 35.6036 31.4276C32.8338 38.2457 31.4843 45.7741 31.5554 54.0128V75.9588H0.873535ZM54.8863 75.9588V54.2259C54.8863 47.9759 56.0582 41.4773 58.4019 34.7301C60.8167 27.9119 64.0838 21.4844 68.2031 15.4474C72.3934 9.3395 77.0809 4.19035 82.2656 0L100.163 11.6122C95.973 17.9332 92.4573 24.5384 89.6164 31.4276C86.8465 38.2457 85.4971 45.7741 85.5681 54.0128V75.9588H54.8863Z" fill="#DA0A13" fill-opacity="0.07"/>
</svg>
