<svg width="140" height="70" viewBox="0 0 140 70" fill="none" xmlns="http://www.w3.org/2000/svg">
<g clip-path="url(#clip0_246_2416)">
<path d="M21.1828 5.89202L140.007 3.79031C137.036 20.3679 134.071 36.9012 131.112 53.3902L4.89966 56.5435C6.15333 39.644 7.39509 22.9028 8.64612 6.03553C10.2608 6.03553 11.779 6.02346 13.2958 6.04358C13.598 6.04358 17.4562 6.03553 21.1828 5.89202ZM17.8106 29.5607V21.8982H20.1262V29.5432C20.2295 29.5665 20.3342 29.5826 20.4396 29.5915C23.3226 29.5915 26.2055 29.5915 29.0897 29.5714C29.366 29.5491 29.6281 29.4382 29.8382 29.2549C30.8433 28.422 31.8126 27.5461 32.819 26.7159C32.9737 26.5969 33.0966 26.4406 33.1768 26.2612C33.2569 26.0818 33.2916 25.885 33.2779 25.6885C33.2713 21.229 33.2779 16.768 33.2884 12.3071C33.2765 12.1295 33.2526 11.953 33.217 11.7787C30.1754 11.7787 27.1814 11.772 24.1901 11.7907C23.9558 11.8202 23.7366 11.9234 23.5632 12.0858C22.5622 12.9241 21.5902 13.7972 20.5811 14.6248C20.4158 14.7481 20.2847 14.9127 20.2006 15.1026C20.1164 15.2925 20.0822 15.5012 20.1011 15.7085C20.1341 16.7479 20.1117 17.79 20.1117 18.8671H17.8119V11.8243H12.3794V29.5647L17.8106 29.5607ZM41.8565 32.6187V50.3229H47.2468V38.9345L50.0636 42.9984L52.7627 39.1263L52.9068 39.1826V50.3001H58.2799V32.6173C56.7194 32.6173 55.2039 32.6066 53.6897 32.6348C53.5231 32.6348 53.3102 32.8413 53.207 33.0076C52.2813 34.4991 51.3781 36.0026 50.4683 37.5021C50.336 37.714 50.2038 37.9245 50.053 38.1834C49.0083 36.4532 48.0178 34.7982 47.0114 33.1552C46.8792 32.9459 46.6636 32.6468 46.4824 32.6428C44.9444 32.6012 43.4104 32.6187 41.8565 32.6187ZM124.464 23.9007L124.616 23.9382V29.5459H129.996V11.8417H124.587C124.587 12.9268 124.533 13.9555 124.603 14.9762C124.676 15.8434 124.411 16.7051 123.864 17.3756C123.061 18.4218 122.347 19.5377 121.594 20.6227L121.462 20.5865V11.8149H116.089V29.5861C117.411 29.5861 118.68 29.5647 119.952 29.5969C120.419 29.6089 120.707 29.4748 120.97 29.0671C121.838 27.7259 122.749 26.4101 123.644 25.0863C123.913 24.6893 124.19 24.2977 124.464 23.9034V23.9007ZM100.491 29.5124C100.585 29.5446 100.681 29.5689 100.779 29.5848C103.708 29.5848 106.636 29.5848 109.565 29.5687C109.796 29.5687 110.059 29.4091 110.246 29.2522C111.249 28.4139 112.22 27.5381 113.23 26.7038C113.385 26.5875 113.509 26.4334 113.59 26.2557C113.671 26.078 113.706 25.8825 113.693 25.6872C113.681 21.2464 113.693 16.8069 113.693 12.3661C113.693 12.1757 113.662 11.9866 113.645 11.7693C110.584 11.7693 107.59 11.7612 104.597 11.784C104.367 11.784 104.106 11.957 103.916 12.1167C102.948 12.9335 102.013 13.7865 101.034 14.5845C100.851 14.7186 100.704 14.8977 100.606 15.105C100.509 15.3122 100.465 15.5411 100.479 15.7702C100.499 20.1211 100.49 24.472 100.49 28.8243L100.491 29.5124ZM77.0982 50.2987H82.548V42.4874H85.6623V50.3094H91.0698V32.6495H85.5565V39.4898H82.5612V32.6643H77.0982V50.2987ZM61.2752 50.3148C61.3912 50.3344 61.5082 50.3474 61.6257 50.3537C64.4861 50.3537 67.3465 50.3537 70.2057 50.3336C70.4817 50.3159 70.7454 50.2108 70.9594 50.0331C71.946 49.215 72.8942 48.3486 73.8847 47.5344C74.0424 47.4205 74.1692 47.2682 74.2536 47.0914C74.338 46.9147 74.3771 46.7193 74.3674 46.5232C74.3674 42.3332 74.3885 38.1418 74.4044 33.9505C74.4044 33.5334 74.4044 33.1149 74.4044 32.679C74.2597 32.6463 74.113 32.6235 73.9654 32.6106C71.1049 32.6106 68.2445 32.5999 65.384 32.6227C65.1067 32.6506 64.8449 32.766 64.6355 32.9526C63.6477 33.7708 62.6955 34.6318 61.7063 35.4486C61.5422 35.5715 61.411 35.734 61.3246 35.9214C61.2383 36.1088 61.1995 36.3151 61.2118 36.5216C61.2342 40.8927 61.2316 45.2624 61.2382 49.6321C61.2395 49.8575 61.2594 50.0734 61.2713 50.3148H61.2752ZM56.7327 29.5392H70.0496V22.0283C68.4032 22.0283 66.7991 22.0498 65.1963 22.0149C64.6474 22.0028 64.5192 22.2134 64.5443 22.715C64.5774 23.395 64.5522 24.0764 64.5522 24.7725H62.2393V16.2517H64.6012V19.0749C66.3071 18.4325 67.9231 17.8169 69.5603 17.2388C69.9954 17.0846 70.1144 16.8552 70.0999 16.4113C70.0655 15.4536 70.0893 14.4933 70.0893 13.5343V11.8243H56.7327V29.5392ZM98.7518 11.835H85.5989V29.5459H91.0076C91.0076 28.4555 91.0658 27.3999 90.9878 26.3672C90.9296 25.5946 91.2258 25.2325 91.8818 24.9039C94.0294 23.8309 96.1374 22.6761 98.2718 21.5763C98.6394 21.3872 98.7637 21.1659 98.7611 20.7542C98.7426 18.1884 98.7518 15.624 98.7518 13.0582V11.835ZM17.7855 50.3282C17.7855 49.0943 17.808 47.9355 17.7736 46.7793C17.7604 46.3314 17.9164 46.1087 18.3026 45.9156C20.5507 44.7554 22.7817 43.559 25.0272 42.3949C25.3988 42.2031 25.5667 42.0005 25.5561 41.5432C25.531 38.7561 25.5482 35.969 25.5482 33.182C25.5404 33.0198 25.5236 32.8581 25.498 32.6978H12.4653V50.3269L17.7855 50.3282ZM39.4418 36.9776V32.6589H27.8638V50.3148H39.4087V45.7667H33.3585V42.8241H35.9558V39.9136H33.3638V36.9763L39.4418 36.9776ZM83.9154 16.1967V11.8149H71.3681V16.2409H74.9241V29.5499H80.4215V16.1953L83.9154 16.1967ZM105.603 32.6562H93.0759V37.0528H96.624V50.3081H102.07V37.0031H105.603V32.6562ZM35.6543 29.5553H41.0763V16.4341H45.9997V11.8229H35.6583L35.6543 29.5553ZM47.2547 18.3198V22.77H54.2941V18.3185L47.2547 18.3198ZM123.149 8.22575C122.726 7.86362 122.344 7.26543 121.885 7.19971C120.827 7.04681 119.731 7.15143 118.623 7.15143C118.638 7.22756 118.661 7.30179 118.692 7.37273C119.461 8.34378 120.253 9.29605 120.995 10.2886C121.332 10.7406 121.719 10.8452 122.259 10.9189C123.956 11.151 125.205 10.6426 126.075 9.09755C126.453 8.42694 127.035 7.8663 127.626 7.12729C127.022 7.12729 126.587 7.16484 126.159 7.12058C124.911 6.99182 123.772 7.10046 123.149 8.22575Z" fill="#ED1D26"/>
<path d="M21.1828 5.89201C21.2555 5.5525 21.3277 5.21751 21.3992 4.88583C21.5799 4.04742 21.756 3.23013 21.9247 2.41421C22.0349 1.8777 22.1357 1.34119 22.2365 0.804685C22.2869 0.536457 22.3373 0.268228 22.3889 0H14.851C14.769 0.490115 14.6852 0.97984 14.6014 1.46949C14.3743 2.79682 14.1473 4.1236 13.957 5.45611C13.8987 5.8281 13.7894 5.9812 13.5236 6.0273L21.183 5.90101L21.1828 5.89201Z" fill="#292929"/>
<path d="M17.8107 29.5647H12.3794V11.8243H17.812V18.867H20.1117C20.1117 17.7941 20.1342 16.7479 20.1011 15.7085C20.0822 15.5012 20.1165 15.2924 20.2006 15.1026C20.2847 14.9127 20.4158 14.7481 20.5812 14.6247C21.5902 13.7972 22.5648 12.9241 23.5633 12.0858C23.7366 11.9234 23.9559 11.8202 24.1901 11.7907C27.1815 11.772 30.1728 11.7787 33.2171 11.7787C33.2526 11.953 33.2765 12.1295 33.2885 12.3071C33.2885 16.768 33.2713 21.229 33.2779 25.6885C33.2917 25.885 33.2569 26.0818 33.1768 26.2612C33.0967 26.4406 32.9737 26.5969 32.819 26.7159C31.8126 27.5461 30.8433 28.422 29.8382 29.2549C29.6282 29.4382 29.366 29.5491 29.0897 29.5714C26.2055 29.5969 23.3226 29.5915 20.4397 29.5915C20.3342 29.5826 20.2295 29.5665 20.1262 29.5432V21.8982H17.8107V29.5647ZM27.7792 24.6544V16.2503H25.5932V24.6504L27.7792 24.6544Z" fill="white"/>
<path d="M41.8565 32.6186C43.4104 32.6186 44.9444 32.6012 46.4771 32.6428C46.6609 32.6428 46.8738 32.9459 47.0061 33.1551C48.0151 34.7981 49.0056 36.4532 50.0477 38.1834C50.205 37.9245 50.3346 37.714 50.4629 37.5021C51.3728 36.0026 52.2773 34.499 53.2017 33.0076C53.3048 32.8413 53.5178 32.6374 53.6844 32.6347C55.1986 32.6066 56.7141 32.6173 58.2746 32.6173V50.3001H52.9015V39.1826L52.7574 39.1263L50.0583 42.9984L47.2415 38.9345V50.3202H41.8512L41.8565 32.6186Z" fill="white"/>
<path d="M124.464 23.9034C124.19 24.2977 123.915 24.6893 123.645 25.0863C122.75 26.4101 121.839 27.7232 120.971 29.0671C120.707 29.4695 120.42 29.6036 119.953 29.5969C118.681 29.5647 117.407 29.5861 116.09 29.5861V11.8122H121.463V20.5785L121.596 20.6147C122.348 19.5296 123.062 18.4137 123.865 17.3676C124.412 16.6971 124.678 15.8353 124.604 14.9681C124.534 13.9474 124.588 12.9187 124.588 11.8337H129.996V29.5379H124.615V23.9409L124.464 23.9034Z" fill="white"/>
<path d="M100.491 29.5151V28.8243C100.491 24.472 100.5 20.1211 100.48 15.7702C100.467 15.5412 100.51 15.3124 100.607 15.1052C100.704 14.8979 100.851 14.7188 101.034 14.5845C102.013 13.7865 102.948 12.9335 103.915 12.1287C104.105 11.9691 104.366 11.7974 104.596 11.7961C107.588 11.7733 110.582 11.7813 113.644 11.7813C113.661 11.9986 113.691 12.1837 113.691 12.3782C113.691 16.819 113.681 21.2585 113.691 25.6993C113.705 25.8945 113.669 26.09 113.588 26.2677C113.507 26.4454 113.384 26.5996 113.229 26.7159C112.218 27.5435 111.245 28.4193 110.245 29.2642C110.057 29.4212 109.794 29.5794 109.564 29.5808C106.635 29.6036 103.707 29.5969 100.778 29.5969C100.68 29.5778 100.584 29.5504 100.491 29.5151ZM108.21 24.6491V16.3683H106.009V24.6491H108.21Z" fill="white"/>
<path d="M77.0981 50.2987V32.6643H82.5611V39.4898H85.5565V32.6495H91.0697V50.3095H85.6623V42.4874H82.5479V50.2987H77.0981Z" fill="white"/>
<path d="M61.2712 50.3148C61.2593 50.0734 61.2395 49.8574 61.2395 49.6442C61.2329 45.2745 61.2395 40.9047 61.213 36.5337C61.2007 36.3272 61.2395 36.1209 61.3259 35.9335C61.4123 35.7461 61.5435 35.5835 61.7076 35.4607C62.6968 34.6439 63.649 33.7828 64.6368 32.9647C64.8462 32.778 65.108 32.6626 65.3853 32.6347C68.2458 32.6119 71.1062 32.62 73.9666 32.6227C74.1143 32.6355 74.261 32.6584 74.4057 32.6911C74.4057 33.127 74.4057 33.5454 74.4057 33.9625C74.3898 38.1539 74.3673 42.3452 74.3687 46.5352C74.3784 46.7313 74.3392 46.9268 74.2549 47.1035C74.1705 47.2802 74.0437 47.4326 73.886 47.5465C72.8955 48.3606 71.9473 49.2271 70.9607 50.0452C70.7466 50.2228 70.483 50.3279 70.2069 50.3456C67.3478 50.3684 64.4874 50.3644 61.627 50.3658C61.5075 50.3557 61.3888 50.3387 61.2712 50.3148ZM68.9744 45.4931C68.9744 42.7918 68.9744 40.1469 68.9599 37.502C68.9382 37.4193 68.8959 37.3435 68.8371 37.282C68.7783 37.2205 68.7049 37.1753 68.624 37.1506C67.9945 37.1144 67.3611 37.1346 66.6906 37.1346V45.4931H68.9744Z" fill="white"/>
<path d="M56.7327 29.5392V11.8242H70.0893V13.5343C70.0893 14.4933 70.0655 15.4536 70.0999 16.4112C70.1144 16.8552 69.9954 17.0819 69.5603 17.2388C67.9284 17.8169 66.3124 18.4378 64.6051 19.0749V16.2583H62.2433V24.7725H64.5562C64.5562 24.0764 64.5813 23.395 64.5483 22.715C64.5232 22.2134 64.6514 22.0028 65.2002 22.0149C66.803 22.0498 68.4072 22.0283 70.0536 22.0283V29.5392H56.7327Z" fill="white"/>
<path d="M98.7505 11.8296V13.0582C98.7505 15.624 98.7413 18.1884 98.7598 20.7541C98.7598 21.1659 98.6381 21.3872 98.2705 21.5763C96.1413 22.6761 94.0254 23.8296 91.8804 24.9039C91.2192 25.2325 90.9283 25.5946 90.9865 26.3672C91.0645 27.4053 91.0063 28.4555 91.0063 29.5459H85.5975V11.8296H98.7505ZM91.0407 20.2552C91.7813 19.873 92.4451 19.539 93.0971 19.1822C93.1502 19.1497 93.1955 19.1057 93.2298 19.0533C93.2642 19.0009 93.2866 18.9414 93.2954 18.8791C93.3126 18.0422 93.3047 17.2039 93.3047 16.367H91.0407V20.2552Z" fill="white"/>
<path d="M17.7841 50.3269H12.4692V32.6964H25.5019C25.5275 32.8568 25.5443 33.0184 25.5521 33.1806C25.5521 35.9677 25.5349 38.7548 25.5601 41.5418C25.5601 41.9992 25.3961 42.2017 25.0311 42.3935C22.7829 43.5577 20.556 44.7541 18.3065 45.9142C17.9217 46.1127 17.7656 46.33 17.7775 46.778C17.8066 47.9395 17.7841 49.0929 17.7841 50.3269ZM17.8423 37.1426V41.0992C18.5577 40.7317 19.2044 40.4139 19.8352 40.0651C19.9059 40.0254 19.9673 39.9707 20.0152 39.9047C20.0631 39.8388 20.0964 39.7631 20.1129 39.6829C20.1381 38.846 20.1248 38.009 20.1248 37.1413L17.8423 37.1426Z" fill="white"/>
<path d="M39.4405 36.9763H33.3652V39.9136H35.9572V42.824H33.3599V45.7667H39.4087V50.3148H27.8612V32.6575H39.4391L39.4405 36.9763Z" fill="white"/>
<path d="M83.914 16.1953H80.4201V29.5432H74.9227V16.2342H71.3667V11.8149H83.914V16.1953Z" fill="white"/>
<path d="M105.606 32.6495V36.9964H102.073V50.3014H96.6267V37.0514H93.0786V32.6495H105.606Z" fill="white"/>
<path d="M35.657 29.554V11.8229H45.9984V16.4341H41.075V29.554H35.657Z" fill="white"/>
<path d="M47.2573 18.3185H54.2967V22.77H47.2573V18.3185Z" fill="white"/>
<path d="M123.15 8.22575C123.772 7.10046 124.911 6.99182 126.159 7.12058C126.587 7.16484 127.022 7.12729 127.626 7.12729C127.035 7.8663 126.453 8.42291 126.075 9.09755C125.205 10.6426 123.959 11.151 122.26 10.9189C121.719 10.8452 121.334 10.7406 120.995 10.2886C120.253 9.29605 119.461 8.34378 118.692 7.37273C118.661 7.30179 118.638 7.22756 118.623 7.15143C119.731 7.15143 120.826 7.04681 121.885 7.19971C122.344 7.26543 122.722 7.86362 123.15 8.22575Z" fill="white"/>
<path d="M2.99537 58.3005L120.238 56.4898C119.82 57.536 119.444 58.5017 119.047 59.4526C118.795 60.0655 118.67 60.9025 118.209 61.2109C117.747 61.5194 116.935 61.3182 116.277 61.3182H10.3904C8.28768 61.3182 8.52978 61.3317 4.95125 61.3317H0.358422C0.342552 61.0634 0.322728 60.8676 0.321406 60.6731C0.22619 47.6874 0.132738 34.702 0.0410492 21.7172C0.0225351 19.2399 0.0238446 16.764 -0.00524902 14.2881C-0.00524902 13.8616 0.115093 13.6564 0.523727 13.529C1.69937 13.1722 2.85915 12.7645 4.1115 12.3487C3.74651 27.6709 3.37227 42.9099 2.99537 58.3005Z" fill="#DA0A13"/>
<path d="M9.8247 61.3316C9.60459 61.3453 9.46321 61.375 9.36252 61.459C9.19515 61.5987 9.14024 61.877 9.02301 62.4314C8.65969 64.1587 8.28577 65.884 7.90981 67.6188C7.73839 68.4098 7.56655 69.2027 7.39509 69.9986H3.57324C4.01637 67.2138 4.45576 64.4491 4.90706 61.6095L4.95123 61.3316H9.8247Z" fill="#292929"/>
<path d="M27.7791 24.6504H25.5931V16.2503H27.7791V24.6504Z" fill="#ED1D26"/>
<path d="M108.21 24.6491H106.009V16.3683H108.21V24.6491Z" fill="#ED1D26"/>
<path d="M68.9744 45.4931H66.6906V37.1346C67.361 37.1346 67.9945 37.1145 68.624 37.1507C68.7049 37.1753 68.7782 37.2205 68.837 37.282C68.8958 37.3435 68.9381 37.4193 68.9599 37.5021C68.9797 40.147 68.9744 42.7919 68.9744 45.4931Z" fill="#ED1D26"/>
<path d="M91.0406 20.2552V16.3657H93.3047C93.3047 17.2026 93.3126 18.0409 93.2954 18.8778C93.2872 18.9403 93.2654 19.0001 93.2315 19.053C93.1977 19.1059 93.1526 19.1505 93.0997 19.1836C92.4451 19.539 91.7772 19.873 91.0406 20.2552Z" fill="#ED1D26"/>
<path d="M17.8424 37.1426H20.1249C20.1249 38.0104 20.1382 38.8473 20.113 39.6842C20.0965 39.7644 20.0632 39.8401 20.0153 39.9061C19.9674 39.972 19.906 40.0268 19.8353 40.0665C19.2045 40.4152 18.5578 40.7371 17.8424 41.1006V37.1426Z" fill="#ED1D26"/>
</g>
<defs>
<clipPath id="clip0_246_2416">
<rect width="140" height="70" fill="white"/>
</clipPath>
</defs>
</svg>
