<svg version="1.1" id="Слой_1" xmlns="http://www.w3.org/2000/svg" xmlns:xlink="http://www.w3.org/1999/xlink" x="0px" y="0px"
	 viewBox="0 0 512 512" style="enable-background:new 0 0 512 512;" xml:space="preserve">
<style type="text/css">
	.st0{fill-rule:evenodd;clip-rule:evenodd;fill:#DA0A13;}
</style>
<g>
	<path class="st0" d="M229.5,1.5c64.4-4.8,118.6,16.2,162.5,63c52.6,63.1,61.3,131.7,26,206c-22.8,45-49.2,87.7-79,128
		c-15.7,20.3-31.3,40.7-47,61c-13.6,16.8-27.8,33.1-42.5,49c-48.5-54.4-92.7-112-132.5-173c-21-32.3-38-66.6-51-103
		C49.8,156.8,71,93.6,129.5,43C159.1,20.1,192.4,6.2,229.5,1.5z M237.5,65.5c53.9-2.3,94.7,19.4,122.5,65c25.3,51.8,20,100.2-16,145
		c-40.1,40.8-87.2,52-141.5,33.5c-44.9-20.2-71-54.7-78.5-103.5c-3.4-54.7,18.1-96.2,64.5-124.5C204,72.9,220.4,67.7,237.5,65.5z"/>
</g>
<g>
	<path class="st0" d="M242.5,127.5c31.2-1.3,53.3,12,66.5,40c10.5,33.5,1.3,60-27.5,79.5c-30.7,14.7-57.9,9.8-81.5-14.5
		c-19.3-27.3-19.3-54.7,0-82C211.5,137.7,225.6,130,242.5,127.5z"/>
</g>
</svg>
